<?xml version="1.0" encoding="UTF-8"?>
<svg width="105px" height="34px" viewBox="0 0 105 34" version="1.1" xmlns="http://www.w3.org/2000/svg" xmlns:xlink="http://www.w3.org/1999/xlink">
    <!-- Generator: Sketch 49 (51002) - http://www.bohemiancoding.com/sketch -->
    <title>icon--logo-visa</title>
    <desc>Created with Sketch.</desc>
    <defs></defs>
    <g id="Page-1" stroke="none" stroke-width="1" fill="none" fill-rule="evenodd">
        <g id="icon--logo-visa" fill-rule="nonzero">
            <polygon id="polygon9" fill="#00579F" points="45.6131745 34 37 34 42.3872965 1 51 1"></polygon>
            <path d="M77,1.40123186 C75.2903967,0.735286066 72.5788246,0 69.2259735,0 C60.6665816,0 54.6391279,4.48152204 54.6021584,10.888749 C54.5310631,15.6159869 58.9176389,18.2416096 62.1984468,19.817821 C65.5517719,21.4284698 66.6916655,22.4797427 66.6916655,23.915412 C66.6575397,26.1203394 63.9819892,27.1367096 61.4865466,27.1367096 C58.0261047,27.1367096 56.1719411,26.6127019 53.3542001,25.3859841 L52.2128846,24.860115 L51,32.2483438 C53.0328496,33.1576786 56.7781464,33.9646318 60.6665816,34 C69.7610836,34 75.6818944,29.5878182 75.7520417,22.759896 C75.7866414,19.0131946 73.4703588,16.1423214 68.4766297,13.7963865 C65.4451291,12.2904462 63.5885956,11.2750068 63.5885956,9.7341637 C63.6241432,8.33339721 65.1588523,6.89865864 68.5809027,6.89865864 C71.3986437,6.82838763 73.4689369,7.49340268 75.0372977,8.15888311 L75.8212411,8.50837668 L77,1.40123186 Z" id="path11" fill="#00579F"></path>
            <path d="M87.3662963,22.309574 C88.0777671,20.4137409 90.815465,13.0763118 90.815465,13.0763118 C90.7795608,13.1467698 91.5255185,11.1454831 91.9521175,9.91690115 L92.5558756,12.7604174 C92.5558756,12.7604174 94.1918804,20.659644 94.5471434,22.309574 C93.1969552,22.309574 89.0726924,22.309574 87.3662963,22.309574 Z M98.0303266,1 L91.347887,1 C89.2871729,1 87.7215593,1.59632651 86.8324571,3.73806258 L74,34 L83.0648745,34 C83.0648745,34 84.5572624,29.9269686 84.8780384,29.0497434 C85.8724912,29.0497434 94.6907603,29.0497434 95.9700849,29.0497434 C96.2181076,30.2083339 97.0009144,34 97.0009144,34 L105,34 L98.0303266,1 Z" id="path13" fill="#00579F"></path>
            <path d="M30.0040939,1 L21.6725181,23.5267307 L20.7620879,18.9580461 C19.2217536,13.6863791 14.3909376,7.95882461 9,5.11092868 L16.6314239,34 L25.6277952,34 L39,1 L30.0040939,1 Z" id="path15" fill="#00579F"></path>
            <path d="M14.0594423,1 L0.142377692,1 L0,1.66899009 C10.8561807,4.4165778 18.0460177,11.0395329 21,19 L17.9745923,3.78316731 C17.4765069,1.66852194 15.9458285,1.06975474 14.0594423,1 Z" id="path17" fill="#FAA61A"></path>
        </g>
    </g>
</svg>