<?xml version="1.0" encoding="UTF-8"?>
<svg width="34px" height="34px" viewBox="0 0 34 34" version="1.1" xmlns="http://www.w3.org/2000/svg" xmlns:xlink="http://www.w3.org/1999/xlink">
    <!-- Generator: Sketch 49 (51002) - http://www.bohemiancoding.com/sketch -->
    <title>icon--logo-american-express</title>
    <desc>Created with Sketch.</desc>
    <defs>
        <radialGradient cx="17.5409177%" cy="17.466056%" fx="17.5409177%" fy="17.466056%" r="93.2873442%" id="radialGradient-1">
            <stop stop-color="#9DD5F6" offset="0%"></stop>
            <stop stop-color="#98D3F5" offset="7.11%"></stop>
            <stop stop-color="#89CEF3" offset="15.75%"></stop>
            <stop stop-color="#70C6EF" offset="25.16%"></stop>
            <stop stop-color="#4EBBEA" offset="35.14%"></stop>
            <stop stop-color="#23ADE3" offset="45.46%"></stop>
            <stop stop-color="#0DA6E0" offset="50%"></stop>
            <stop stop-color="#2E77BC" offset="100%"></stop>
        </radialGradient>
    </defs>
    <g id="Page-1" stroke="none" stroke-width="1" fill="none" fill-rule="evenodd">
        <g id="icon--logo-american-express" fill-rule="nonzero">
            <path d="M33.7994415,0 L0,0 L0,34 L33.7994415,34 L33.7994415,22.7791325 C33.9337066,22.5846003 34,22.3357577 34,22.0315232 C34,21.6833118 33.9337066,21.4676322 33.7994415,21.2859566" id="Shape" fill="url(#radialGradient-1)"></path>
            <path d="M3.02534763,15.2969912 L2.37968619,13.5828722 L1.73771492,15.2969912 L3.02534763,15.2969912 Z M17.2491835,14.6144302 C17.1195512,14.7001556 16.9662304,14.7030088 16.782555,14.7030088 L15.6365774,14.7030088 L15.6365774,13.7479682 L16.798149,13.7479682 C16.9625403,13.7479682 17.1340738,13.756009 17.2454933,13.8255231 C17.3678642,13.8881636 17.4435723,14.0214854 17.4435723,14.2056459 C17.4435723,14.3935674 17.3715544,14.5447864 17.2491835,14.6144302 Z M25.4244667,15.2969912 L24.771663,13.5828722 L24.1224305,15.2969912 L25.4244667,15.2969912 Z M10.1852378,17.1523431 L9.21817411,17.1523431 L9.21460297,13.7848003 L7.84673873,17.1523431 L7.01847319,17.1523431 L5.64703782,13.7818174 L5.64703782,17.1523431 L3.72838533,17.1523431 L3.36591499,16.193282 L1.40179003,16.193282 L1.03562952,17.1523431 L0.0110705225,17.1523431 L1.70033703,12.8525852 L3.10188898,12.8525852 L4.70628148,16.9235691 L4.70628148,12.8525852 L6.24591737,12.8525852 L7.48045919,15.7694536 L8.61453304,12.8525852 L10.1851188,12.8525852 L10.1851188,17.1523431 L10.1852378,17.1523431 Z M14.0395652,17.1523431 L10.8882755,17.1523431 L10.8882755,12.8525852 L14.0395652,12.8525852 L14.0395652,13.7479682 L11.8316507,13.7479682 L11.8316507,14.5229984 L13.9865934,14.5229984 L13.9865934,15.4043749 L11.8316507,15.4043749 L11.8316507,16.2630555 L14.0395652,16.2630555 L14.0395652,17.1523431 Z M18.482773,14.0105914 C18.482773,14.6961352 18.0628074,15.0503199 17.8180655,15.1566661 C18.0244772,15.2422618 18.2007723,15.3934809 18.284694,15.5187619 C18.4178973,15.7326215 18.4408717,15.9236555 18.4408717,16.307669 L18.4408717,17.1523431 L17.4894019,17.1523431 L17.4858308,16.6101072 C17.4858308,16.3513747 17.508567,15.9792928 17.3369144,15.7724365 C17.1990685,15.6212174 16.9889667,15.5884057 16.6493516,15.5884057 L15.6366964,15.5884057 L15.6366964,17.1523431 L14.6934403,17.1523431 L14.6934403,12.8525852 L16.8631436,12.8525852 C17.345247,12.8525852 17.7004561,12.866462 18.0054311,13.0585336 C18.3038591,13.2506052 18.482773,13.530996 18.482773,14.0105914 Z M19.9924113,17.1523431 L19.0298711,17.1523431 L19.0298711,12.8525852 L19.9924113,12.8525852 L19.9924113,17.1523431 Z M31.1591164,17.1523431 L29.8223211,17.1523431 L28.0342531,13.9251254 L28.0342531,17.1523431 L26.1131009,17.1523431 L25.7459881,16.193282 L23.7863865,16.193282 L23.4302252,17.1523431 L22.326387,17.1523431 C21.8678531,17.1523431 21.2873054,17.0418468 20.9585227,16.6767681 C20.6270023,16.3116894 20.4545164,15.8171797 20.4545164,15.0352758 C20.4545164,14.3975878 20.5576032,13.8146291 20.9630462,13.3539685 C21.2680212,13.0108075 21.7456012,12.8525852 22.395667,12.8525852 L23.3089256,12.8525852 L23.3089256,13.7739063 L22.4148321,13.7739063 C22.0705746,13.7739063 21.8761857,13.8296732 21.6889391,14.0286184 C21.528119,14.2096663 21.4177709,14.5519194 21.4177709,15.0025938 C21.4177709,15.4632544 21.5018116,15.7953917 21.6771544,16.0123638 C21.8223806,16.1825177 22.0862876,16.2341345 22.3346006,16.2341345 L22.7582564,16.2341345 L24.0877904,12.8527149 L25.5012462,12.8527149 L27.0983774,16.9196784 L27.0983774,12.8527149 L28.5346884,12.8527149 L30.192886,15.8472679 L30.192886,12.8527149 L31.1591164,12.8527149 L31.1591164,17.1523431 Z M0.000119037876,17.9968874 L1.61189188,17.9968874 L1.97531452,17.0418468 L2.78893841,17.0418468 L3.15140874,17.9968874 L6.3226968,17.9968874 L6.3226968,17.2667301 L6.60576887,18 L8.2520627,18 L8.53513477,17.2558361 L8.53513477,17.9968874 L16.4163945,17.9968874 L16.4127043,16.429189 L16.5651918,16.429189 C16.6719688,16.4332094 16.7031567,16.4439737 16.7031567,16.6360453 L16.7031567,17.9968874 L20.7793707,17.9968874 L20.7793707,17.6319384 C21.1081534,17.8238803 21.6195401,17.9968874 22.2924612,17.9968874 L24.0073208,17.9968874 L24.3743146,17.0418468 L25.1879385,17.0418468 L25.5468377,17.9968874 L28.8514482,17.9968874 L28.8514482,17.0897026 L29.3518834,17.9968874 L32,17.9968874 L32,12 L29.3792621,12 L29.3792621,12.7082397 L29.0122683,12 L26.3230837,12 L26.3230837,12.7082397 L25.9860874,12 L22.3536467,12 C21.7456012,12 21.2111211,12.0924693 20.7793707,12.3501643 L20.7793707,12 L18.2726711,12 L18.2726711,12.3501643 C17.9979317,12.0845582 17.6235576,12 17.2072821,12 L8.0493412,12 L7.43486768,13.5488933 L6.8038479,12 L3.91932208,12 L3.91932208,12.7082397 L3.60244325,12 L1.1424065,12 L0,14.851245 L0,17.9968874 L0.000119037876,17.9968874 Z" id="Shape" fill="#FFFFFF"></path>
            <path d="M34,20.7696079 L32.2735769,20.7696079 C32.1012095,20.7696079 31.9866964,20.7766065 31.8902328,20.8472405 C31.7903027,20.9168377 31.7518129,21.0201318 31.7518129,21.1564748 C31.7518129,21.3186089 31.8362036,21.4289016 31.9589646,21.4765957 C32.0588946,21.5143104 32.1662358,21.5253267 32.32402,21.5253267 L32.8374167,21.5402311 C33.3554751,21.5540987 33.7012856,21.6506534 33.9121428,21.8861432 C33.9505131,21.9189329 33.9735831,21.9557404 34,21.9925478 L34,20.7696079 Z M34,23.6031321 C33.7698979,23.9679663 33.3215276,24.1529107 32.7145362,24.1529107 L30.8851947,24.1529107 L30.8851947,23.2312993 L32.7071251,23.2312993 C32.8878598,23.2312993 33.0143263,23.2055082 33.0904692,23.1248947 C33.1564517,23.058408 33.2024721,22.9618533 33.2024721,22.844562 C33.2024721,22.7193649 33.1564517,22.619959 33.0867637,22.5603413 C33.0180319,22.4947619 32.9179823,22.464953 32.753026,22.464953 C31.8635768,22.4321633 30.7539468,22.4947619 30.7539468,21.1347014 C30.7539468,20.5113079 31.1190023,19.8551247 32.1130433,19.8551247 L33.9998805,19.8551247 L34,19 L32.2468014,19 C31.7177459,19 31.3334455,19.1373798 31.0612676,19.3509666 L31.0612676,19 L28.4682262,19 C28.0535643,19 27.5668237,19.1114591 27.3366021,19.3509666 L27.3366021,19 L22.7061113,19 L22.7061113,19.3509666 C22.3375893,19.0627282 21.7157758,19 21.4287757,19 L18.3744544,19 L18.3744544,19.3509666 C18.082912,19.0448429 17.434562,19 17.0393841,19 L13.6210831,19 L12.8388555,19.9178529 L12.1062343,19 L7,19 L7,24.9970191 L12.0101294,24.9970191 L12.8161441,24.0646506 L13.5754212,24.9970191 L16.6636901,25 L16.6636901,23.5892645 L16.9673054,23.5892645 C17.3770664,23.5961335 17.8603405,23.5782482 18.2867167,23.3783994 L18.2867167,24.9968895 L20.8339767,24.9968895 L20.8339767,23.4338697 L20.9568572,23.4338697 C21.1136853,23.4338697 21.1291051,23.4408683 21.1291051,23.6107787 L21.1291051,24.9967599 L28.8672292,24.9967599 C29.3585121,24.9967599 29.8720283,24.8604169 30.1563986,24.6130036 L30.1563986,24.9967599 L32.6109006,24.9967599 C33.1216674,24.9967599 33.620481,24.9191273 34,24.7203154 L34,23.6031321 Z M30.2214248,21.8861432 C30.4058651,22.0931202 30.5047194,22.3544011 30.5047194,22.7967383 C30.5047194,23.7213306 29.9719583,24.1529107 29.0166462,24.1529107 L27.1716458,24.1529107 L27.1716458,23.2312993 L29.0092351,23.2312993 C29.188894,23.2312993 29.3163168,23.2055082 29.3961652,23.1248947 C29.461311,23.058408 29.5080486,22.9618533 29.5080486,22.844562 C29.5080486,22.7193649 29.4574859,22.619959 29.3924596,22.5603413 C29.3200223,22.4947619 29.2200923,22.464953 29.055136,22.464953 C28.1692728,22.4321633 27.0598819,22.4947619 27.0598819,21.1347014 C27.0598819,20.5113079 27.4211123,19.8551247 28.414197,19.8551247 L30.3132266,19.8551247 L30.3132266,20.7698672 L28.5755673,20.7698672 C28.4033195,20.7698672 28.2913166,20.7768658 28.1960483,20.8474997 C28.0922932,20.9170969 28.0538034,21.020391 28.0538034,21.156734 C28.0538034,21.3188681 28.1418996,21.4291608 28.2610746,21.476855 C28.3610046,21.5145696 28.4683457,21.5255859 28.629716,21.5255859 L29.1396462,21.5404903 C29.6538795,21.5540987 30.0068621,21.6505238 30.2214248,21.8861432 Z M21.6738195,21.620715 C21.5471139,21.7022357 21.3904054,21.7092343 21.2060847,21.7092343 L20.0553352,21.7092343 L20.0553352,20.7439464 L21.2217436,20.7439464 C21.3904054,20.7439464 21.5591868,20.7478345 21.6738195,20.821579 C21.7965805,20.8911762 21.8699741,21.0242791 21.8699741,21.2081866 C21.8699741,21.3920942 21.7965805,21.5402311 21.6738195,21.620715 Z M22.2459071,22.1555892 C22.4567643,22.2399611 22.6291317,22.3912086 22.7099363,22.5164057 C22.8436944,22.7262339 22.8630588,22.922065 22.8668839,23.3008964 L22.8668839,24.1529107 L21.9158749,24.1529107 L21.9158749,23.6151852 C21.9158749,23.356626 21.9388254,22.9737769 21.7627525,22.7739281 C21.6243326,22.619959 21.4133559,22.5831515 21.0677844,22.5831515 L20.0554547,22.5831515 L20.0554547,24.1529107 L19.103609,24.1529107 L19.103609,19.8549951 L21.2905949,19.8549951 C21.7701635,19.8549951 22.1194406,19.877935 22.4303474,20.0578248 C22.7293008,20.2536559 22.9173271,20.5219354 22.9173271,21.0122259 C22.9172075,21.698218 22.4952541,22.0482774 22.2459071,22.1555892 Z M23.4425575,19.8549951 L26.6041004,19.8549951 L26.6041004,20.7438168 L24.3859163,20.7438168 L24.3859163,21.5251971 L26.5499517,21.5251971 L26.5499517,22.4020953 L24.3859163,22.4020953 L24.3859163,23.25722 L26.6041004,23.2611081 L26.6041004,24.1529107 L23.4425575,24.1529107 L23.4425575,19.8549951 Z M17.051457,21.8384491 L15.8273139,21.8384491 L15.8273139,20.7439464 L17.0624541,20.7439464 C17.4044396,20.7439464 17.6418332,20.8950643 17.6418332,21.2709148 C17.6418332,21.642618 17.4154367,21.8384491 17.051457,21.8384491 Z M14.8838355,23.7620261 L13.4294708,22.0113403 L14.8838355,20.3162545 L14.8838355,23.7620261 Z M11.1279717,23.25722 L8.79897998,23.25722 L8.79897998,22.4020953 L10.8786247,22.4020953 L10.8786247,21.5251971 L8.79897998,21.5251971 L8.79897998,20.7438168 L11.1738726,20.7438168 L12.2099895,21.9963063 L11.1279717,23.25722 Z M18.6588247,21.2709148 C18.6588247,22.4648234 17.8372706,22.7113295 17.0092616,22.7113295 L15.8273139,22.7113295 L15.8273139,24.1529107 L13.9861385,24.1529107 L12.8197301,22.730122 L11.6075404,24.1529107 L7.85538211,24.1529107 L7.85538211,19.8549951 L11.6652751,19.8549951 L12.8307272,21.2637866 L14.0356254,19.8549951 L17.0624541,19.8549951 C17.8142006,19.8549951 18.6588247,20.0806351 18.6588247,21.2709148 Z" id="Shape" fill="#FFFFFF"></path>
        </g>
    </g>
</svg>