<?xml version="1.0" encoding="UTF-8"?>
<svg width="45px" height="34px" viewBox="0 0 45 34" version="1.1" xmlns="http://www.w3.org/2000/svg" xmlns:xlink="http://www.w3.org/1999/xlink">
    <!-- Generator: Sketch 49 (51002) - http://www.bohemiancoding.com/sketch -->
    <title>icon--logo-mastercard</title>
    <desc>Created with Sketch.</desc>
    <defs></defs>
    <g id="Page-1" stroke="none" stroke-width="1" fill="none" fill-rule="evenodd">
        <g id="icon--logo-mastercard" fill-rule="nonzero">
            <g id="Group" transform="translate(23.500000, 31.000000) scale(-1, 1) rotate(-180.000000) translate(-23.500000, -31.000000) translate(2.000000, 28.000000)" fill="#231F20">
                <path d="M42.122449,0.857142857 L42.122449,0.768857143 L42.2058163,0.768857143 C42.2242449,0.768857143 42.2400408,0.773142857 42.251449,0.78 C42.2619796,0.786857143 42.2681224,0.798857143 42.2681224,0.813428571 C42.2681224,0.828 42.2619796,0.839142857 42.251449,0.846 C42.2400408,0.853714286 42.2242449,0.857142857 42.2058163,0.857142857 L42.122449,0.857142857 Z M42.2066939,0.918857143 C42.2496939,0.918857143 42.2830408,0.909428571 42.3067347,0.890571429 C42.3304286,0.871714286 42.3418367,0.846 42.3418367,0.813428571 C42.3418367,0.786 42.3330612,0.763714286 42.3137551,0.745714286 C42.2953265,0.728571429 42.269,0.717428571 42.233898,0.713142857 L42.3444694,0.588857143 L42.2584694,0.588857143 L42.1557959,0.712285714 L42.122449,0.712285714 L42.122449,0.588857143 L42.0504898,0.588857143 L42.0504898,0.918857143 L42.2066939,0.918857143 Z M42.1847551,0.474857143 C42.2242449,0.474857143 42.261102,0.482571429 42.294449,0.497142857 C42.3286735,0.511714286 42.3585102,0.531428571 42.3839592,0.556285714 C42.4094082,0.581142857 42.4295918,0.610285714 42.4445102,0.644571429 C42.458551,0.678 42.466449,0.714 42.466449,0.752571429 C42.466449,0.791142857 42.458551,0.827142857 42.4445102,0.860571429 C42.4295918,0.894 42.4094082,0.924 42.3839592,0.948857143 C42.3585102,0.973714286 42.3286735,0.993428571 42.294449,1.008 C42.261102,1.02171429 42.2242449,1.02857143 42.1847551,1.02857143 C42.1452653,1.02857143 42.1075306,1.02171429 42.0733061,1.008 C42.0382041,0.993428571 42.0074898,0.973714286 41.9820408,0.948857143 C41.9565918,0.924 41.9364082,0.894 41.9223673,0.860571429 C41.907449,0.827142857 41.9004286,0.791142857 41.9004286,0.752571429 C41.9004286,0.714 41.907449,0.678 41.9223673,0.644571429 C41.9364082,0.610285714 41.9565918,0.581142857 41.9820408,0.556285714 C42.0074898,0.531428571 42.0382041,0.511714286 42.0733061,0.497142857 C42.1075306,0.482571429 42.1452653,0.474857143 42.1847551,0.474857143 Z M42.1847551,1.10828571 C42.2365306,1.10828571 42.2839184,1.09885714 42.329551,1.08 C42.3743061,1.062 42.4129184,1.03628571 42.4471429,1.00371429 C42.4804898,0.972 42.5068163,0.934285714 42.5261224,0.890571429 C42.5454286,0.847714286 42.5550816,0.801428571 42.5550816,0.752571429 C42.5550816,0.703714286 42.5454286,0.657428571 42.5261224,0.614571429 C42.5068163,0.571714286 42.4804898,0.534 42.4471429,0.501428571 C42.4129184,0.469714286 42.3743061,0.444 42.329551,0.425142857 C42.2839184,0.406285714 42.2365306,0.396857143 42.1847551,0.396857143 C42.132102,0.396857143 42.0838367,0.406285714 42.0382041,0.425142857 C41.9925714,0.444 41.9530816,0.469714286 41.9197347,0.501428571 C41.8863878,0.534 41.8600612,0.571714286 41.8407551,0.614571429 C41.821449,0.657428571 41.8117959,0.703714286 41.8117959,0.752571429 C41.8117959,0.801428571 41.821449,0.847714286 41.8407551,0.890571429 C41.8600612,0.934285714 41.8863878,0.972 41.9197347,1.00371429 C41.9530816,1.03628571 41.9925714,1.062 42.0382041,1.08 C42.0838367,1.09885714 42.132102,1.10828571 42.1847551,1.10828571 Z M7.9944898,2.37942857 C7.9944898,3.00857143 8.41659184,3.52542857 9.10634694,3.52542857 C9.76538776,3.52542857 10.2103061,3.03085714 10.2103061,2.37942857 C10.2103061,1.728 9.76538776,1.23342857 9.10634694,1.23342857 C8.41659184,1.23342857 7.9944898,1.75028571 7.9944898,2.37942857 Z M10.9614898,2.37942857 L10.9614898,4.16914286 L10.1646735,4.16914286 L10.1646735,3.73457143 C9.91193878,4.05685714 9.52844898,4.25914286 9.00718367,4.25914286 C7.97957143,4.25914286 7.17397959,3.47228571 7.17397959,2.37942857 C7.17397959,1.28571429 7.97957143,0.499714286 9.00718367,0.499714286 C9.52844898,0.499714286 9.91193878,0.702 10.1646735,1.02428571 L10.1646735,0.589714286 L10.9614898,0.589714286 L10.9614898,2.37942857 Z M37.8882653,2.37942857 C37.8882653,3.00857143 38.3103673,3.52542857 39.0001224,3.52542857 C39.6600408,3.52542857 40.1040816,3.03085714 40.1040816,2.37942857 C40.1040816,1.728 39.6600408,1.23342857 39.0001224,1.23342857 C38.3103673,1.23342857 37.8882653,1.75028571 37.8882653,2.37942857 Z M40.8561429,2.37942857 L40.8561429,5.60657143 L40.058449,5.60657143 L40.058449,3.73457143 C39.8057143,4.05685714 39.4222245,4.25914286 38.9009592,4.25914286 C37.8733469,4.25914286 37.0677551,3.47228571 37.0677551,2.37942857 C37.0677551,1.28571429 37.8733469,0.499714286 38.9009592,0.499714286 C39.4222245,0.499714286 39.8057143,0.702 40.058449,1.02428571 L40.058449,0.589714286 L40.8561429,0.589714286 L40.8561429,2.37942857 Z M20.8523673,3.56228571 C21.3657347,3.56228571 21.6956939,3.24771429 21.7799388,2.694 L19.8782857,2.694 C19.9634082,3.21085714 20.2845918,3.56228571 20.8523673,3.56228571 Z M20.8681633,4.25914286 C19.7940408,4.25914286 19.0428571,3.49542857 19.0428571,2.37942857 C19.0428571,1.24114286 19.8247551,0.499714286 20.9216939,0.499714286 C21.4736735,0.499714286 21.9791429,0.634285714 22.4240612,1.00114286 L22.033551,1.578 C21.7264082,1.33885714 21.3350204,1.20342857 20.9673265,1.20342857 C20.4539592,1.20342857 19.9862245,1.43571429 19.8712653,2.08028571 L22.592551,2.08028571 C22.600449,2.17714286 22.6083469,2.27485714 22.6083469,2.37942857 C22.600449,3.49542857 21.894898,4.25914286 20.8681633,4.25914286 Z M30.4896327,2.37942857 C30.4896327,3.00857143 30.9117347,3.52542857 31.6014898,3.52542857 C32.2605306,3.52542857 32.705449,3.03085714 32.705449,2.37942857 C32.705449,1.728 32.2605306,1.23342857 31.6014898,1.23342857 C30.9117347,1.23342857 30.4896327,1.75028571 30.4896327,2.37942857 Z M33.4566327,2.37942857 L33.4566327,4.16914286 L32.6598163,4.16914286 L32.6598163,3.73457143 C32.4062041,4.05685714 32.0235918,4.25914286 31.5023265,4.25914286 C30.4747143,4.25914286 29.6691224,3.47228571 29.6691224,2.37942857 C29.6691224,1.28571429 30.4747143,0.499714286 31.5023265,0.499714286 C32.0235918,0.499714286 32.4062041,0.702 32.6598163,1.02428571 L32.6598163,0.589714286 L33.4566327,0.589714286 L33.4566327,2.37942857 Z M25.989551,2.37942857 C25.989551,1.29342857 26.763551,0.499714286 27.9447347,0.499714286 C28.4967143,0.499714286 28.8644082,0.619714286 29.2628163,0.926571429 L28.8802041,1.55571429 C28.5809592,1.34571429 28.2667959,1.23342857 27.9210408,1.23342857 C27.2848163,1.24114286 26.8170816,1.69028571 26.8170816,2.37942857 C26.8170816,3.06857143 27.2848163,3.51771429 27.9210408,3.52542857 C28.2667959,3.52542857 28.5809592,3.41314286 28.8802041,3.20314286 L29.2628163,3.83228571 C28.8644082,4.13914286 28.4967143,4.25914286 27.9447347,4.25914286 C26.763551,4.25914286 25.989551,3.46542857 25.989551,2.37942857 Z M36.2630408,4.25914286 C35.8032041,4.25914286 35.5039592,4.04914286 35.2968571,3.73457143 L35.2968571,4.16914286 L34.5070612,4.16914286 L34.5070612,0.589714286 L35.3047551,0.589714286 L35.3047551,2.59628571 C35.3047551,3.18857143 35.5653878,3.51771429 36.0866531,3.51771429 C36.2481224,3.51771429 36.4166122,3.49542857 36.585102,3.42771429 L36.8308163,4.16142857 C36.6544286,4.22914286 36.4245102,4.25914286 36.2630408,4.25914286 Z M14.9025714,3.88457143 C14.5190816,4.13142857 13.9907959,4.25914286 13.408102,4.25914286 C12.4796531,4.25914286 11.8820408,3.82457143 11.8820408,3.11314286 C11.8820408,2.52942857 12.3269592,2.16942857 13.1465918,2.05714286 L13.5230612,2.00485714 C13.9600816,1.94485714 14.1663061,1.83257143 14.1663061,1.63028571 C14.1663061,1.35342857 13.8749592,1.19571429 13.3308776,1.19571429 C12.778898,1.19571429 12.3804898,1.368 12.1119592,1.57028571 L11.7363673,0.964285714 C12.1733878,0.649714286 12.7253673,0.499714286 13.3229796,0.499714286 C14.3813061,0.499714286 14.9947143,0.986571429 14.9947143,1.668 C14.9947143,2.29714286 14.5120612,2.62628571 13.7143673,2.73857143 L13.3387755,2.79171429 C12.993898,2.83628571 12.7174694,2.90314286 12.7174694,3.14314286 C12.7174694,3.40542857 12.978102,3.56228571 13.4151224,3.56228571 C13.8828571,3.56228571 14.3356735,3.39 14.5576939,3.25542857 L14.9025714,3.88457143 Z M25.1839592,4.25914286 C24.7241224,4.25914286 24.4248776,4.04914286 24.2186531,3.73457143 L24.2186531,4.16914286 L23.4288571,4.16914286 L23.4288571,0.589714286 L24.2256735,0.589714286 L24.2256735,2.59628571 C24.2256735,3.18857143 24.4863061,3.51771429 25.0075714,3.51771429 C25.1690408,3.51771429 25.3375306,3.49542857 25.5060204,3.42771429 L25.7517347,4.16142857 C25.5753469,4.22914286 25.3454286,4.25914286 25.1839592,4.25914286 Z M18.3838163,4.16914286 L17.0806531,4.16914286 L17.0806531,5.25514286 L16.2750612,5.25514286 L16.2750612,4.16914286 L15.5317755,4.16914286 L15.5317755,3.45771429 L16.2750612,3.45771429 L16.2750612,1.82485714 C16.2750612,0.994285714 16.6050204,0.499714286 17.5475102,0.499714286 C17.8932653,0.499714286 18.2916735,0.604285714 18.5444082,0.776571429 L18.3144898,1.44342857 C18.0766735,1.30885714 17.8160408,1.24114286 17.6089388,1.24114286 C17.2105306,1.24114286 17.0806531,1.48114286 17.0806531,1.84028571 L17.0806531,3.45771429 L18.3838163,3.45771429 L18.3838163,4.16914286 Z M6.46930612,0.589714286 L6.46930612,2.83628571 C6.46930612,3.68228571 5.91732653,4.25142857 5.0274898,4.25914286 C4.5597551,4.26685714 4.07710204,4.12457143 3.7392449,3.62228571 C3.4865102,4.01914286 3.08810204,4.25914286 2.52822449,4.25914286 C2.13683673,4.25914286 1.75422449,4.14685714 1.45497959,3.72771429 L1.45497959,4.16914286 L0.657285714,4.16914286 L0.657285714,0.589714286 L1.462,0.589714286 L1.462,2.574 C1.462,3.19542857 1.81477551,3.52542857 2.35973469,3.52542857 C2.88889796,3.52542857 3.15655102,3.18857143 3.15655102,2.58171429 L3.15655102,0.589714286 L3.96214286,0.589714286 L3.96214286,2.574 C3.96214286,3.19542857 4.32983673,3.52542857 4.859,3.52542857 C5.40308163,3.52542857 5.66371429,3.18857143 5.66371429,2.58171429 L5.66371429,0.589714286 L6.46930612,0.589714286 Z" id="Shape"></path>
            </g>
            <g id="Group" transform="translate(44.000000, 21.500000) scale(-1, 1) rotate(-180.000000) translate(-44.000000, -21.500000) translate(43.000000, 21.000000)" fill="#F79410">
                <path d="M2,0 L2,0.61 L1.841,0.61 L1.657,0.191 L1.474,0.61 L1.314,0.61 L1.314,0 L1.427,0 L1.427,0.46 L1.599,0.063 L1.716,0.063 L1.888,0.461 L1.888,0 L2,0 Z M0.991,0 L0.991,0.506 L1.195,0.506 L1.195,0.609 L0.675,0.609 L0.675,0.506 L0.879,0.506 L0.879,0 L0.991,0 Z" id="Shape"></path>
            </g>
            <polygon id="Shape" fill="#FF5F00" points="28 24 16 24 16 3 28 3"></polygon>
            <g id="Group" transform="translate(12.000000, 13.500000) scale(-1, 1) rotate(-180.000000) translate(-12.000000, -13.500000) " fill="#EB001B">
                <path d="M17.7777778,13.5 C17.7777778,17.7330937 19.8657778,21.5038125 23.1173333,23.9338125 C20.7395556,25.71075 17.7386667,26.7713437 14.4773333,26.7713437 C6.75644444,26.7713437 0.497777778,20.8296562 0.497777778,13.5 C0.497777778,6.17034375 6.75644444,0.22865625 14.4773333,0.22865625 C17.7386667,0.22865625 20.7395556,1.28925 23.1173333,3.0661875 C19.8657778,5.4961875 17.7777778,9.26690625 17.7777778,13.5" id="Shape"></path>
            </g>
            <g id="Group" transform="translate(32.500000, 13.500000) scale(-1, 1) rotate(-180.000000) translate(-32.500000, -13.500000) translate(21.000000, 0.000000)" fill="#F79E1B">
                <path d="M22.9090909,13.5 C22.9090909,6.17034375 16.7051329,0.22865625 9.05173427,0.22865625 C5.81890909,0.22865625 2.84425175,1.28925 0.486377622,3.0661875 C3.71039161,5.4961875 5.78013986,9.26690625 5.78013986,13.5 C5.78013986,17.7330937 3.71039161,21.5038125 0.486377622,23.9338125 C2.84425175,25.71075 5.81890909,26.7713437 9.05173427,26.7713437 C16.7051329,26.7713437 22.9090909,20.8296562 22.9090909,13.5" id="Shape"></path>
            </g>
        </g>
    </g>
</svg>